<?xml version="1.0" encoding="UTF-8"?>
<svg xmlns="http://www.w3.org/2000/svg" id="Layer_1" data-name="Layer 1" viewBox="0 0 80 101.23">
  <defs>
    <style>.cls-1{fill:#238dc1;}.cls-2{fill:#1c355e;}.cls-3{fill:#c5c3d1;}</style>
  </defs>
  <title>Web_Logo_102x115</title>
  <path class="cls-1" d="M21,22.28c0,2-.14,2.14-.14,3.21-2.26-.07-2.75-.07-5-.07-1.85,0-4.38,0-4.89,0v-.12c1.17-.2,1.39-.56,1.39-2.22V10.07c0-1.94-.32-2.06-1.22-2.21V7.74c.53,0,1.22,0,2.12,0s1.6,0,2.11,0v.12c-.9.15-1.21.27-1.21,2.21V24.54a7.86,7.86,0,0,0,2.06.15c3.8,0,4.31,0,4.67-2.41Z" transform="translate(-11 -6.89)"></path>
  <path class="cls-1" d="M22.12,19.73a5.85,5.85,0,1,1,11.7,0,5.6,5.6,0,0,1-5.77,5.83C24.36,25.56,22.12,23.35,22.12,19.73Zm9.68-.17c0-3-.83-5.5-4-5.5S24.14,17.42,24.14,20c0,2.72.7,5.3,3.82,5.3C31.24,25.25,31.8,22.31,31.8,19.56Z" transform="translate(-11 -6.89)"></path>
  <path class="cls-1" d="M46.52,25.47c-.54,0-.92,0-1.83,0s-1.28,0-1.82,0v-.12c.73-.15,1.05-.27,1.05-2.22v-5.3c0-3-1.49-3.6-3-3.6a5.41,5.41,0,0,0-2.94,1v7.9c0,1.95.31,2.07,1,2.22v.12c-.53,0-.92,0-1.82,0s-1.29,0-1.82,0v-.12c.72-.15,1-.27,1-2.22V15.72c0-.88,0-1.12-.75-1.32v-.12A7.35,7.35,0,0,0,38,13.75v1a6.74,6.74,0,0,1,3.55-1c1.63,0,3.91.48,3.91,4v5.42c0,1.95.32,2.07,1.05,2.22Z" transform="translate(-11 -6.89)"></path>
  <path class="cls-1" d="M59.83,24.66a2.12,2.12,0,0,1-1.87,1,1.37,1.37,0,0,1-1.56-1.38,4.45,4.45,0,0,1-3.33,1.38c-3.38,0-5.21-2.77-5.21-5.64a6,6,0,0,1,5.77-6.27,5.09,5.09,0,0,1,2.7.8V8.86c0-.88-.08-1.15-1.07-1.32V7.42a7.65,7.65,0,0,0,2.62-.53V22.16c0,2.33.12,2.77.83,2.77a1.88,1.88,0,0,0,1-.39Zm-3.5-8.73a3.2,3.2,0,0,0-2.87-1.7c-1.83,0-3.51,1.56-3.51,5.55,0,2.89,1.44,5.06,4,5.06.8,0,2.36-.39,2.36-2Z" transform="translate(-11 -6.89)"></path>
  <path class="cls-1" d="M60.68,19.73a5.85,5.85,0,1,1,11.7,0,5.59,5.59,0,0,1-5.76,5.83C62.92,25.56,60.68,23.35,60.68,19.73Zm9.68-.17c0-3-.82-5.5-4-5.5S62.7,17.42,62.7,20c0,2.72.71,5.3,3.82,5.3C69.81,25.25,70.36,22.31,70.36,19.56Z" transform="translate(-11 -6.89)"></path>
  <path class="cls-1" d="M85.09,25.47c-.54,0-.93,0-1.83,0s-1.29,0-1.82,0v-.12c.73-.15,1-.27,1-2.22v-5.3c0-3-1.48-3.6-3-3.6a5.47,5.47,0,0,0-3,1v7.9c0,1.95.32,2.07,1.05,2.22v.12c-.54,0-.92,0-1.82,0s-1.29,0-1.83,0v-.12c.73-.15,1-.27,1-2.22V15.72c0-.88,0-1.12-.76-1.32v-.12a7.35,7.35,0,0,0,2.31-.53v1a6.77,6.77,0,0,1,3.55-1c1.63,0,3.92.48,3.92,4v5.42c0,1.95.32,2.07,1,2.22Z" transform="translate(-11 -6.89)"></path>
  <path class="cls-1" d="M12.13,98.22a4.62,4.62,0,0,0-.06.63c0,2.07,2,3.18,4,3.18a3.25,3.25,0,0,0,3.43-3.41c0-5.05-7.57-4.93-7.57-10.43a4.39,4.39,0,0,1,4.67-4.52c1.46,0,2.37.4,3.36.4a3.1,3.1,0,0,0,.43,0,16.11,16.11,0,0,0-.08,1.67c0,.38,0,1,0,1.39h-.16a3.3,3.3,0,0,0-3.53-2.91,2.79,2.79,0,0,0-3.08,2.85c0,4.83,7.52,4.7,7.52,10.48a5,5,0,0,1-5.25,5.13c-1.69,0-2.42-.48-3.63-.48a2.36,2.36,0,0,0-.38,0,6,6,0,0,0,0-.65c0-.58-.12-1.11-.12-1.75a4,4,0,0,1,.3-1.58Z" transform="translate(-11 -6.89)"></path>
  <path class="cls-1" d="M34.5,101.37a2.1,2.1,0,0,1-1.81,1.29c-1,0-1.42-.68-1.42-2.32a4.68,4.68,0,0,1-4.06,2.32c-2.33,0-3.82-1.29-3.82-4.37v-6c0-.91-.2-1.18-1.24-1.36v-.13A8.8,8.8,0,0,0,25,90.29v7.87c0,2.71.86,3.82,2.83,3.82a3.63,3.63,0,0,0,3.43-2.25v-7.4c0-.91-.08-1.18-1.11-1.36v-.13a8,8,0,0,0,2.73-.55V100c0,.78,0,1.66.65,1.66a1.23,1.23,0,0,0,.91-.43Z" transform="translate(-11 -6.89)"></path>
  <path class="cls-1" d="M39.53,102.46c-.55,0-1,0-1.89,0s-1.34,0-1.89,0v-.13c.75-.15,1.08-.28,1.08-2.3v-7.7c0-.91,0-1.16-.78-1.36v-.13a7.65,7.65,0,0,0,2.4-.55v1.16A3.93,3.93,0,0,1,41,90.29c1.32,0,1.62.93,1.62,2.09H41c0-.93-.35-1.31-.93-1.31-.41,0-.91.18-1.59,1v8c0,2,.33,2.15,1.08,2.3Z" transform="translate(-11 -6.89)"></path>
  <path class="cls-1" d="M53.53,92.48c-.15-.58-.41-.78-.73-.78a1.24,1.24,0,0,0-.76.35,4,4,0,0,1,.73,2.35c0,2.53-2.07,4-4.49,4-.33,0-.61,0-.89,0a1.42,1.42,0,0,0-1.16,1.39c0,1.38,1.62,1.31,3.69,1.54,3,.32,4.06,1.76,4.06,3.23,0,1.77-1.84,3.56-5.4,3.56-2.65,0-5.3-1.09-5.3-3.21,0-1.26.88-2.45,3-3.13-1-.2-1.75-.58-1.75-1.67s1-1.66,1.92-1.92a3.9,3.9,0,0,1-2.77-3.81c0-2,1.51-4.06,4.52-4.06a4.82,4.82,0,0,1,3.58,1.49c.43-.48,1.19-1.19,1.84-1.19a.87.87,0,0,1,.79.43Zm-8.28,12.25c0,2.07,1.51,3,3.38,3,1.64,0,3.26-.75,3.26-2.9,0-2.78-2.53-2.78-4.6-3A2.66,2.66,0,0,0,45.25,104.73Zm5.43-10.25c0-2.43-.76-3.87-2.55-3.87-1.57,0-2.33,1.32-2.33,3.64,0,2.73.81,3.84,2.4,3.84S50.68,96.88,50.68,94.48Z" transform="translate(-11 -6.89)"></path>
  <path class="cls-1" d="M65.3,100.69a5.16,5.16,0,0,1-4.19,2c-4.07,0-6-3.08-6-6.16,0-3.46,2.27-6.21,5.38-6.21a4.45,4.45,0,0,1,4.64,4.47H57.2a7.34,7.34,0,0,0-.05.85c0,4,2.09,6.22,5,6.22a4.19,4.19,0,0,0,3.08-1.24Zm-2.25-6.44C63,92,62,90.61,60.43,90.61s-2.81,1.44-3.18,3.64Z" transform="translate(-11 -6.89)"></path>
  <path class="cls-1" d="M70.58,102.46c-.55,0-1,0-1.89,0s-1.34,0-1.89,0v-.13c.75-.15,1.08-.28,1.08-2.3v-7.7c0-.91,0-1.16-.78-1.36v-.13a7.65,7.65,0,0,0,2.4-.55v1.16A3.93,3.93,0,0,1,72,90.29c1.32,0,1.62.93,1.62,2.09H72c0-.93-.35-1.31-.93-1.31-.41,0-.91.18-1.59,1v8c0,2,.33,2.15,1.08,2.3Z" transform="translate(-11 -6.89)"></path>
  <path class="cls-1" d="M79.73,108.11l-2.58,0c-.83,0-1.06,0-1.41,0V108c1.13-.1,1.59-.36,3.13-3.61l1-2.12L75.23,91.78a1.73,1.73,0,0,0-1.56-1.27v-.12l2.3,0,2.17,0v.12c-.76.1-1.16.21-1.16.68a2,2,0,0,0,.2.79l3.66,8.23L84,93.65a6.22,6.22,0,0,0,.73-2.18c0-.55-.35-.88-1.26-1v-.12c.35,0,.88,0,2,0l1.79,0v.12c-.91.18-1.29.43-2.75,3.54l-4.85,10.33a7.34,7.34,0,0,0-.91,2.7c0,.68.43.78,1,.91Z" transform="translate(-11 -6.89)"></path>
  <path class="cls-2" d="M19,53.52c-.73,0-2.68-.06-3.92-.06s-3.18,0-3.91.06V53c1.54-.27,1.67-1,1.67-4.72v-14c0-3.75-.13-4.45-1.67-4.72v-.5c.73,0,2.68.07,3.91.07,4,0,8.94,0,11.45-.07,0,.84-.06,2-.06,2.88,0,.67,0,2.28,0,3H26c-1.61-4.39-2.88-4.59-6.4-4.59a18.36,18.36,0,0,0-2.27.14v9.81h1.87c2.15,0,3.88-.1,4.45-2.85h.51c-.07,1-.14,2.14-.14,3.11s.07,2.45.14,3.25h-.51c-.63-2.28-2-2.38-4.45-2.38H17.3v6.9c0,3.75.13,4.45,1.67,4.72Z" transform="translate(-11 -6.89)"></path>
  <path class="cls-2" d="M35,53.66a8.14,8.14,0,1,1,0-16.27,8.14,8.14,0,1,1,0,16.27Zm3.81-8c0-4.82-.73-7.33-3.81-7.33S31.2,40.8,31.2,45.62c0,4.59.74,7.13,3.82,7.13S38.83,50.21,38.83,45.62Z" transform="translate(-11 -6.89)"></path>
  <path class="cls-2" d="M53.5,53.66a8.14,8.14,0,1,1,8.44-8A8.2,8.2,0,0,1,53.5,53.66Zm3.82-8c0-4.82-.74-7.33-3.82-7.33s-3.81,2.51-3.81,7.33c0,4.59.73,7.13,3.81,7.13S57.32,50.21,57.32,45.62Z" transform="translate(-11 -6.89)"></path>
  <path class="cls-2" d="M73.26,50.54a3.83,3.83,0,0,1-3.81,3.12c-2.78,0-4.69-1.41-4.69-4.66V39.76H63.12v-.5a11.19,11.19,0,0,0,5.19-7.1l.84.17a50.46,50.46,0,0,0-.24,5.22h1c1.17,0,2.17,0,2.88-.77l.33.41a22.71,22.71,0,0,0-1.54,2.57H68.91V48.3c0,2.51.57,3.51,2,3.51,1,0,1.47-.66,1.94-1.57Z" transform="translate(-11 -6.89)"></path>
  <path class="cls-2" d="M32.81,81.11c-.69,0-2.46-.06-3.58-.06s-3.64,0-4.37.06v-.49c1-.2,1.38-.63,1.38-1.38a9.73,9.73,0,0,0-.59-2.63l-1-3.15c-1.22,0-2.4,0-3.61,0-1.61,0-2.4,0-3.29,0l-.39,1a13.42,13.42,0,0,0-1.09,4.28c0,1,.33,1.67,1.22,1.87v.49c-.73,0-2.14-.06-3.35-.06s-1.91,0-2.6.06v-.49c1.84-.63,2.83-2.17,4.67-6.93l6.63-17h1.09l6.47,20c.75,2.3,1.51,3.45,2.46,3.91ZM21.41,63.67,18.23,72c.69,0,1.31,0,2.76,0,1.05,0,2.1,0,3.15,0Z" transform="translate(-11 -6.89)"></path>
  <path class="cls-2" d="M50.66,81.11c-.72,0-2.23-.06-3.45-.06s-2.72,0-3.44.06v-.49c1-.2,1.41-.36,1.41-3v-7c0-2.82-1-3.94-3-3.94a4.28,4.28,0,0,0-3,1.48v9.46c0,2.63.42,2.79,1.41,3v.49c-.73,0-2.23-.06-3.45-.06s-2.73,0-3.45.06v-.49c1-.2,1.41-.36,1.41-3V69.75c0-2,0-2.7-1-3v-.5a12.5,12.5,0,0,0,5.1-1v1.87a7.3,7.3,0,0,1,4.89-1.87c2.27,0,5.19.65,5.19,5.35v7c0,2.63.43,2.79,1.41,3Z" transform="translate(-11 -6.89)"></path>
  <path class="cls-2" d="M68,81.11c-.86,0-2.21-.06-3-.06-1.45,0-2.37,0-3.26.06v-.49c.43-.07.63-.2.63-.43a5.89,5.89,0,0,0-1-1.74l-4-6v5.19c0,2.63.43,2.79,1.42,3v.49c-.73,0-2.24-.06-3.45-.06s-2.73,0-3.45.06v-.49c1-.2,1.41-.36,1.41-3V60.48c0-2,0-2.69-1-3V57a12.29,12.29,0,0,0,5.09-1V72c3.55-3.26,4.31-4.31,4.31-4.93a1.18,1.18,0,0,0-1.09-1.15v-.49c.76,0,1.91.06,3.09.06s2.14,0,2.93-.06v.52c-1.75.53-3.29,1.58-6,4.27l2.85,4.44c3.16,4.92,3.72,5.65,4.51,6Z" transform="translate(-11 -6.89)"></path>
  <path class="cls-2" d="M75.12,81.11c-.72,0-2.23-.06-3.44-.06s-2.73,0-3.46.06v-.49c1-.2,1.42-.36,1.42-3V60.48c0-2,0-2.69-1-3V57a12.29,12.29,0,0,0,5.09-1V77.63c0,2.63.43,2.79,1.41,3Z" transform="translate(-11 -6.89)"></path>
  <path class="cls-2" d="M90.87,77.66a7.25,7.25,0,0,1-6.21,3.72,8.05,8.05,0,0,1-.23-16.1c3.22,0,6.57,1.57,6.57,6.53H80.75v.4c0,4.24,2.26,7,5.45,7a6.24,6.24,0,0,0,4.37-2ZM87,70.76c0-3-.86-4.6-2.63-4.6s-3.15,2.11-3.48,4.6Z" transform="translate(-11 -6.89)"></path>
  <path class="cls-3" d="M77.79,36.73a1.54,1.54,0,0,1-.89-1.25,1,1,0,0,1,1.1-1,3.72,3.72,0,0,1-1.1-2.6,2,2,0,0,1,1.91-2.22c1.22,0,2.22,1.07,2.22,2.8a3.68,3.68,0,0,1-.58,2h3c1.09,0,1.72-.42,1.72-1.59a2.08,2.08,0,0,0-2.19-2V30a3,3,0,0,1,2.5,3c0,1.26-.4,2.57-2.26,2.57H78.59c-.72,0-1,.12-1,.5a.82.82,0,0,0,.26.58Zm2.35-2.23a2.51,2.51,0,0,0,.56-1.67,1.78,1.78,0,0,0-1.78-1.9,1.48,1.48,0,0,0-1.53,1.58,2.62,2.62,0,0,0,1,2Z" transform="translate(-11 -6.89)"></path>
  <path class="cls-3" d="M77,45.45c0-.39,0-.67,0-1.31s0-.92,0-1.31h.09c.1.53.19.75,1.58.75h3.8c2.16,0,2.58-1.06,2.58-2.12a3.88,3.88,0,0,0-.72-2.11H78.71c-1.39,0-1.48.22-1.58.75H77c0-.39,0-.67,0-1.31s0-.92,0-1.31h.09c.1.53.19.75,1.58.75H84c.63,0,.8,0,.94-.54h.09a5.59,5.59,0,0,0,.38,1.66h-.69a4.79,4.79,0,0,1,.69,2.54c0,1.17-.34,2.81-2.83,2.81H78.71c-1.39,0-1.48.22-1.58.75Z" transform="translate(-11 -6.89)"></path>
  <path class="cls-3" d="M77.61,55a1.51,1.51,0,0,1-.71-1.34c0-.73.33-1,1-1.12a3.16,3.16,0,0,1-1-2.38,3.76,3.76,0,0,1,4-3.73,4.3,4.3,0,0,1,4.49,4.13,3.63,3.63,0,0,1-.57,1.93h4.08c.62,0,.82,0,.94-.77H90a5.6,5.6,0,0,0,.39,1.89H79.41c-1.68,0-2,.08-2,.59a1.41,1.41,0,0,0,.28.75Zm6.26-2.51a2.3,2.3,0,0,0,1.22-2c0-1.31-1.12-2.51-4-2.51-2.07,0-3.62,1-3.62,2.87,0,.58.28,1.69,1.41,1.69Z" transform="translate(-11 -6.89)"></path>
</svg>
